<svg width="20" height="20" viewBox="0 0 20 20" fill="none" xmlns="http://www.w3.org/2000/svg">
<path d="M16.4541 10.8337C17.1132 9.88883 17.4997 8.73966 17.4997 7.50033C17.4997 4.27867 14.888 1.66699 11.6663 1.66699C8.44467 1.66699 5.83301 4.27866 5.83301 7.50033C5.83301 8.39499 6.03442 9.24258 6.39437 10.0003" stroke="#999999" stroke-linejoin="round"/>
<path d="M11.6667 5C10.7462 5 10 5.55964 10 6.25C10 6.94036 10.7462 7.5 11.6667 7.5C12.5872 7.5 13.3333 8.05964 13.3333 8.75C13.3333 9.44033 12.5872 10 11.6667 10M11.6667 5C12.3923 5 13.0097 5.34783 13.2385 5.83333M11.6667 5V3.75M11.6667 10C10.941 10 10.3237 9.65217 10.0948 9.16667M11.6667 10V11.25" stroke="#999999" stroke-linejoin="round"/>
<path d="M2.5 11.667H5L7.08333 12.8129H7.91667C9.16667 12.8129 10 13.7703 10 14.5835L7.5 15.4168L5 14.5835M9.99942 14.167L13.5086 12.9972C14.3458 12.7182 15.2553 13.1401 15.5831 13.9594L15.8328 14.5837L8.33276 18.3337L2.5 16.6836" stroke="#999999" stroke-linejoin="round"/>
</svg>
