<svg width="20" height="20" viewBox="0 0 20 20" fill="none" xmlns="http://www.w3.org/2000/svg">
<path d="M1.66699 3.75H7.06633C7.88271 3.75 8.67074 4.04959 9.28091 4.59197L12.0837 7.08333" stroke="#999999" stroke-linecap="round" stroke-linejoin="round"/>
<path d="M4.16699 11.25H1.66699" stroke="#999999" stroke-linecap="round" stroke-linejoin="round"/>
<path d="M7.08366 6.25L8.75033 7.91667C9.21058 8.37692 9.21058 9.12308 8.75033 9.58333C8.29009 10.0436 7.5439 10.0436 7.08366 9.58333L5.83366 8.33333C5.11642 9.05058 3.98092 9.13125 3.16944 8.52267L2.91699 8.33333" stroke="#999999" stroke-linecap="round" stroke-linejoin="round"/>
<path d="M4.16699 9.16665V14.5833C4.16699 15.5038 4.91318 16.25 5.83366 16.25H16.667C17.5875 16.25 18.3337 15.5038 18.3337 14.5833V8.74998C18.3337 7.8295 17.5875 7.08331 16.667 7.08331H7.91699" stroke="#999999" stroke-linecap="round" stroke-linejoin="round"/>
<path d="M12.7087 11.6666C12.7087 12.4721 12.0557 13.125 11.2503 13.125C10.4449 13.125 9.79199 12.4721 9.79199 11.6666C9.79199 10.8612 10.4449 10.2083 11.2503 10.2083C12.0557 10.2083 12.7087 10.8612 12.7087 11.6666Z" stroke="#999999" stroke-linecap="round" stroke-linejoin="round"/>
</svg>
